<svg width="54" height="28" viewBox="0 0 54 28" fill="none" xmlns="http://www.w3.org/2000/svg">
<rect width="54" height="28" fill="white"/>
<g id="Landing_community" clip-path="url(#clip0_0_1)">
<path id="Rectangle 1653" d="M-702 -860H738V4385H-702V-860Z" fill="#121321"/>
<g id="Group 6356137">
<g id="Group 6356134">
<rect id="Rectangle 1660" x="-702" y="-3" width="1440" height="314" fill="url(#paint0_linear_0_1)"/>
</g>
</g>
<g id="Tip">
<path id="Rectangle 1013" d="M12.2474 4.06364H12.4228L12.5598 3.95404L16.701 0.640365L19.7465 3.07726C20.5445 3.71577 21.536 4.06364 22.558 4.06364H27.8351H33.4021H38.9691H50C51.933 4.06364 53.5 5.63064 53.5 7.56364V24C53.5 25.933 51.933 27.5 50 27.5H4C2.067 27.5 0.5 25.933 0.5 24V7.56364C0.5 5.63064 2.067 4.06364 4 4.06364H5.56701H12.2474Z" fill="#242642" stroke="#3571FD"/>
<path id="List view" d="M7.71094 19L6.17578 13.3633H6.91016L8.04688 17.9922H8.0625L9.33984 13.3633H10.0508L11.3281 17.9922H11.3438L12.4805 13.3633H13.2148L11.6797 19H11.0156L9.70312 14.4844H9.6875L8.375 19H7.71094ZM14.4727 19.0781C13.6641 19.0781 13.1211 18.5898 13.1211 17.8516V17.8438C13.1211 17.1523 13.6602 16.7188 14.5938 16.6641L15.7578 16.5977V16.2578C15.7578 15.7617 15.4336 15.4609 14.8672 15.4609C14.3438 15.4609 14.0156 15.7109 13.9375 16.0742L13.9297 16.1094H13.2734L13.2773 16.0664C13.3359 15.3984 13.918 14.8594 14.875 14.8594C15.8359 14.8594 16.4375 15.3789 16.4375 16.1914V19H15.7578V18.3398H15.7422C15.5039 18.7852 15.0156 19.0781 14.4727 19.0781ZM13.8164 17.8516C13.8164 18.2422 14.1367 18.4883 14.625 18.4883C15.2656 18.4883 15.7578 18.0469 15.7578 17.457V17.125L14.6719 17.1914C14.1289 17.2227 13.8164 17.4648 13.8164 17.8438V17.8516ZM18.6211 19.0781C17.875 19.0781 17.5078 18.7422 17.5078 17.9648V15.5H16.9141V14.9375H17.5078V13.8398H18.2109V14.9375H18.9844V15.5H18.2109V17.9609C18.2109 18.3945 18.4023 18.5156 18.7656 18.5156C18.8477 18.5156 18.9258 18.5039 18.9844 18.5V19.0508C18.8984 19.0625 18.7539 19.0781 18.6211 19.0781ZM21.2812 19.0781C20.1289 19.0781 19.3984 18.2578 19.3984 16.9648V16.9609C19.3984 15.6797 20.1445 14.8594 21.2734 14.8594C22.2852 14.8594 22.8828 15.5312 22.9688 16.2266L22.9727 16.2578H22.3086L22.3008 16.2266C22.1992 15.8203 21.8711 15.4609 21.2734 15.4609C20.5664 15.4609 20.0938 16.0469 20.0938 16.9688V16.9727C20.0938 17.918 20.5781 18.4766 21.2812 18.4766C21.8359 18.4766 22.1914 18.1641 22.3047 17.7109L22.3125 17.6797H22.9805L22.9766 17.707C22.8672 18.4805 22.1992 19.0781 21.2812 19.0781ZM23.6406 19V13.3633H24.3203V15.5859H24.3359C24.5547 15.1289 24.9961 14.8594 25.6016 14.8594C26.4648 14.8594 27.0547 15.5273 27.0547 16.5117V19H26.375V16.6289C26.375 15.8945 26 15.4609 25.3672 15.4609C24.7383 15.4609 24.3203 15.9375 24.3203 16.6289V19H23.6406ZM31.293 19L29.2148 13.3633H29.9531L31.6328 18.1562H31.6484L33.3281 13.3633H34.0664L31.9883 19H31.293ZM34.8711 14.25C34.6367 14.25 34.4453 14.0586 34.4453 13.8242C34.4453 13.5859 34.6367 13.3984 34.8711 13.3984C35.1094 13.3984 35.2969 13.5859 35.2969 13.8242C35.2969 14.0586 35.1094 14.25 34.8711 14.25ZM34.5312 19V14.9375H35.2109V19H34.5312ZM37.6641 19.0781C36.625 19.0781 35.9375 18.25 35.9375 16.9688V16.9648C35.9375 15.6836 36.6328 14.8594 37.6523 14.8594C38.2266 14.8594 38.6992 15.1484 38.9531 15.6172H38.9688V13.3633H39.6484V19H38.9688V18.3125H38.9531C38.6992 18.7852 38.2461 19.0781 37.6641 19.0781ZM37.7969 18.4766C38.4844 18.4766 38.9727 17.8789 38.9727 16.9688V16.9648C38.9727 16.0586 38.4805 15.4609 37.7969 15.4609C37.0781 15.4609 36.6328 16.0391 36.6328 16.9648V16.9688C36.6328 17.9023 37.0781 18.4766 37.7969 18.4766ZM42.2383 19.0781C41.0703 19.0781 40.3672 18.2617 40.3672 16.9844V16.9805C40.3672 15.7227 41.0859 14.8594 42.1953 14.8594C43.3047 14.8594 43.9805 15.6836 43.9805 16.9023V17.1523H41.0547C41.0703 17.9883 41.5312 18.4766 42.2539 18.4766C42.7695 18.4766 43.1328 18.2188 43.25 17.8711L43.2617 17.8359H43.9297L43.9219 17.875C43.7891 18.5469 43.125 19.0781 42.2383 19.0781ZM42.1914 15.4609C41.6016 15.4609 41.1406 15.8633 41.0664 16.6211H43.2891C43.2227 15.832 42.7852 15.4609 42.1914 15.4609ZM46.3516 19.0781C45.2227 19.0781 44.4688 18.2617 44.4688 16.9688V16.9609C44.4688 15.668 45.2266 14.8594 46.3477 14.8594C47.4688 14.8594 48.2305 15.6641 48.2305 16.9609V16.9688C48.2305 18.2656 47.4727 19.0781 46.3516 19.0781ZM46.3555 18.4766C47.0703 18.4766 47.5352 17.9219 47.5352 16.9688V16.9609C47.5352 16.0078 47.0664 15.4609 46.3477 15.4609C45.6406 15.4609 45.1641 16.0117 45.1641 16.9609V16.9688C45.1641 17.9258 45.6367 18.4766 46.3555 18.4766Z" fill="white" fill-opacity="0.9"/>
</g>
</g>
<defs>
<linearGradient id="paint0_linear_0_1" x1="17.9999" y1="-3" x2="17.9997" y2="297.348" gradientUnits="userSpaceOnUse">
<stop stop-color="#262747" stop-opacity="0"/>
<stop offset="0.572917" stop-color="#191A2D"/>
<stop offset="0.651042" stop-color="#191A2D"/>
<stop offset="1" stop-color="#191A2D" stop-opacity="0"/>
</linearGradient>
<clipPath id="clip0_0_1">
<rect width="1438" height="5245" fill="white" transform="translate(-702 -860)"/>
</clipPath>
</defs>
</svg>
