<svg width="61" height="46" viewBox="0 0 61 46" fill="none" xmlns="http://www.w3.org/2000/svg">
<path d="M60.0859 30.2414C60.0859 38.5663 54.1512 45.532 47.2273 45.532C40.4682 45.532 35.3577 40.2653 35.3577 33.4694C35.3577 26.1639 41.6222 21.237 49.8649 20.7273C47.7218 15.2906 44.095 9.51416 37.0062 2.20864L39.1494 0C52.8323 7.9851 60.0859 20.0477 60.0859 30.2414ZM24.807 30.2414C24.807 38.5663 18.8722 45.532 11.9483 45.532C5.18924 45.532 0.0787315 40.2653 0.0787315 33.4694C0.0787315 26.1639 6.34322 21.237 14.586 20.7273C12.4429 15.2906 8.81604 9.51416 1.72728 2.20864L3.87039 0C17.5534 7.9851 24.807 20.0477 24.807 30.2414Z" fill="#9AE3FF"/>
</svg>
