<svg width="61" height="46" viewBox="0 0 61 46" fill="none" xmlns="http://www.w3.org/2000/svg">
<path d="M0.96875 30.2414C0.96875 38.5663 6.90353 45.532 13.8274 45.532C20.5865 45.532 25.697 40.2653 25.697 33.4694C25.697 26.1639 19.4325 21.237 11.1898 20.7273C13.3329 15.2906 16.9597 9.51416 24.0484 2.20864L21.9053 0C8.22237 7.9851 0.96875 20.0477 0.96875 30.2414ZM36.2477 30.2414C36.2477 38.5663 42.1825 45.532 49.1064 45.532C55.8654 45.532 60.976 40.2653 60.976 33.4694C60.976 26.1639 54.7115 21.237 46.4687 20.7273C48.6118 15.2906 52.2386 9.51416 59.3274 2.20864L57.1843 0C43.5013 7.9851 36.2477 20.0477 36.2477 30.2414Z" fill="#9AE3FF"/>
</svg>
