<svg width="22" height="22" viewBox="0 0 22 22" fill="none" xmlns="http://www.w3.org/2000/svg">
<path fill-rule="evenodd" clip-rule="evenodd" d="M9.93391 1.27219C7.24068 1.62187 6.90502 1.67722 5.85345 1.86249C2.27348 2.49537 0.531387 4.75347 0.834137 8.37967C0.922828 9.44462 0.955035 9.78329 1.30472 12.4765C1.6544 15.1697 1.70985 15.5062 1.89512 16.5578C2.528 20.1378 4.78611 21.8799 8.41231 21.5771C9.47715 21.4876 9.81582 21.4554 12.509 21.1057C15.2023 20.756 15.5388 20.7006 16.5903 20.5153C20.167 19.8829 21.914 17.6241 21.6088 13.9982C21.5202 12.9341 21.4879 12.5946 21.1382 9.90138C20.7886 7.20816 20.7332 6.87249 20.5479 5.82092C19.9188 2.24382 17.6578 0.49875 14.0316 0.801501C12.9666 0.890191 12.6271 0.922506 9.93391 1.27219ZM10.5586 6.09585C7.7464 6.46099 5.7624 9.03705 6.12753 11.8493C6.49267 14.6615 9.06884 16.6463 11.8811 16.2812C14.6933 15.9161 16.6773 13.34 16.312 10.5269C15.9469 7.71472 13.3709 5.73072 10.5586 6.09585ZM11.6499 14.4937C9.82436 14.7307 8.15222 13.4436 7.91509 11.6173C7.67807 9.79178 8.96598 8.11954 10.7915 7.88252C12.617 7.6455 14.2892 8.93341 14.5263 10.7589C14.7634 12.5853 13.4754 14.2567 11.6499 14.4937ZM15.6728 4.01852C15.015 4.10393 14.5512 4.70617 14.6365 5.36315C14.7218 6.02014 15.324 6.48396 15.9819 6.39855C16.6388 6.31325 17.1018 5.71112 17.0165 5.05414C16.9312 4.39715 16.3298 3.93322 15.6728 4.01852Z" fill="#474858"/>
</svg>
