<svg width="25" height="18" viewBox="0 0 25 18" fill="none" xmlns="http://www.w3.org/2000/svg">
<path fill-rule="evenodd" clip-rule="evenodd" d="M6.65571 1.13023C4.60164 1.7341 2.86502 3.19998 1.90556 5.13987C1.06293 6.84339 0.508344 10.4299 0.602932 13.5633C0.652537 15.206 1.47047 16.4074 2.95559 17.0189C4.17771 17.522 5.45691 17.7266 6.86972 17.6448L7.33498 17.6178L7.81174 16.8299C8.52952 15.6438 8.47189 15.761 8.3498 15.7356C6.94078 15.4427 5.51725 14.8167 4.95026 14.2407L4.79405 14.082L5.33369 14.2563C5.63048 14.3521 6.18028 14.501 6.55544 14.5871C12.2265 15.8887 16.128 15.2009 20.061 12.2063L20.337 11.9961L20.0552 12.3741C19.5481 13.0541 18.5728 13.8194 17.5652 14.3278C17.3446 14.4392 17.1663 14.547 17.169 14.5676C17.1734 14.6018 18.1027 15.511 18.5132 15.8827L18.6868 16.04L19.3687 15.8886C21.5242 15.4102 23.4337 14.1946 24.0973 12.8785C24.5466 11.9877 24.578 11.1965 24.2191 9.82227C23.5538 7.27505 22.2573 4.30566 21.2496 3.02106C19.7024 1.04866 17.1692 -0.124136 14.8435 0.055178L14.2702 0.0993948L14.1394 0.280003L14.0086 0.460611L14.7344 0.596508C16.0985 0.851869 17.72 1.38705 18.739 1.91819C18.9261 2.01572 19.0801 2.10304 19.0813 2.11226C19.0825 2.12148 18.8637 2.0606 18.595 1.97697C13.9227 0.522057 8.53131 1.1282 4.0958 3.60716C3.65043 3.85613 3.28495 4.05182 3.28368 4.04206C3.28242 4.03235 3.52117 3.81622 3.81417 3.56183C4.75798 2.74243 5.96096 2.01165 7.34392 1.41748L8.0329 1.1215L7.89888 1.01145C7.73961 0.880635 7.39148 0.913924 6.65571 1.13023ZM8.97568 8.26725C10.0875 8.62983 10.7265 9.85371 10.3733 10.9439C9.92256 12.3354 8.407 12.8576 7.24393 12.0221C6.67726 11.6151 6.31661 10.8923 6.34995 10.2304C6.41989 8.83943 7.72909 7.86064 8.97568 8.26725ZM16.4642 7.31741C17.3515 7.61968 17.9749 8.51475 17.9301 9.42175C17.8456 11.1295 15.9754 12.0448 14.6524 11.0258C13.6015 10.2165 13.5277 8.61425 14.5009 7.74025C15.0625 7.23579 15.7746 7.08246 16.4642 7.31741Z" fill="#474858"/>
</svg>
