<svg width="31" height="30" viewBox="0 0 31 30" fill="none" xmlns="http://www.w3.org/2000/svg">
<g clip-path="url(#clip0_1_12147)">
<path d="M26.1769 6.48207C24.2821 5.61268 22.2503 4.97216 20.1259 4.6053C20.0872 4.59822 20.0486 4.61591 20.0286 4.6513C19.7673 5.11606 19.4779 5.72238 19.2752 6.19895C16.9903 5.85687 14.7171 5.85687 12.479 6.19895C12.2762 5.71179 11.9763 5.11606 11.7138 4.6513C11.6939 4.61709 11.6552 4.5994 11.6165 4.6053C9.49331 4.97098 7.46148 5.61151 5.56556 6.48207C5.54915 6.48915 5.53508 6.50096 5.52575 6.51628C1.6718 12.274 0.616039 17.8902 1.13396 23.4368C1.1363 23.4639 1.15153 23.4898 1.17263 23.5063C3.71535 25.3737 6.17842 26.5073 8.59574 27.2587C8.63443 27.2705 8.67542 27.2564 8.70004 27.2245C9.27186 26.4436 9.78158 25.6202 10.2186 24.7544C10.2444 24.7037 10.2198 24.6435 10.1671 24.6234C9.35857 24.3167 8.58871 23.9428 7.84815 23.5182C7.78958 23.4839 7.78489 23.4002 7.83877 23.3601C7.99461 23.2433 8.15049 23.1218 8.2993 22.9991C8.32622 22.9767 8.36374 22.972 8.39539 22.9861C13.2605 25.2074 18.5276 25.2074 23.3353 22.9861C23.367 22.9708 23.4045 22.9755 23.4326 22.9979C23.5814 23.1206 23.7373 23.2433 23.8943 23.3601C23.9482 23.4002 23.9447 23.4839 23.8861 23.5182C23.1455 23.951 22.3757 24.3167 21.566 24.6223C21.5133 24.6423 21.4898 24.7037 21.5156 24.7544C21.962 25.619 22.4718 26.4424 23.033 27.2233C23.0565 27.2564 23.0986 27.2705 23.1373 27.2587C25.5664 26.5073 28.0294 25.3737 30.5722 23.5063C30.5944 23.4898 30.6085 23.4651 30.6108 23.4379C31.2307 17.0255 29.5726 11.4554 26.2155 6.51745C26.2073 6.50096 26.1933 6.48915 26.1769 6.48207ZM10.9452 20.0595C9.48041 20.0595 8.27351 18.7147 8.27351 17.0633C8.27351 15.4118 9.45701 14.067 10.9452 14.067C12.445 14.067 13.6402 15.4236 13.6168 17.0633C13.6168 18.7147 12.4333 20.0595 10.9452 20.0595ZM20.8231 20.0595C19.3584 20.0595 18.1515 18.7147 18.1515 17.0633C18.1515 15.4118 19.3349 14.067 20.8231 14.067C22.323 14.067 23.5181 15.4236 23.4947 17.0633C23.4947 18.7147 22.323 20.0595 20.8231 20.0595Z" fill="white"/>
</g>
<defs>
<clipPath id="clip0_1_12147">
<rect width="30" height="30" fill="white" transform="translate(0.875)"/>
</clipPath>
</defs>
</svg>
