<svg width="31" height="30" viewBox="0 0 31 30" fill="none" xmlns="http://www.w3.org/2000/svg">
<g clip-path="url(#clip0_1_12150)">
<path d="M26.8325 0H4.91793C2.68533 0 0.875366 1.80989 0.875366 4.04256V25.9573C0.875366 28.19 2.68525 29.9999 4.91793 29.9999H15.7261L15.7445 19.2795H12.9594C12.5974 19.2795 12.3037 18.9869 12.3023 18.6249L12.2889 15.1693C12.2875 14.8054 12.5822 14.5096 12.9461 14.5096H15.7262V11.1706C15.7262 7.29576 18.0927 5.18587 21.5493 5.18587H24.3858C24.7487 5.18587 25.043 5.48008 25.043 5.84305V8.75684C25.043 9.11967 24.7489 9.4138 24.3861 9.41402L22.6455 9.41483C20.7656 9.41483 20.4016 10.3081 20.4016 11.619V14.5097H24.5323C24.9258 14.5097 25.2312 14.8534 25.1848 15.2442L24.7752 18.6998C24.736 19.0305 24.4556 19.2797 24.1227 19.2797H20.42L20.4016 30H26.8327C29.0653 30 30.8751 28.1901 30.8751 25.9575V4.04256C30.8751 1.80989 29.0652 0 26.8325 0Z" fill="white"/>
</g>
<defs>
<clipPath id="clip0_1_12150">
<rect width="30" height="30" fill="white" transform="translate(0.875)"/>
</clipPath>
</defs>
</svg>
