<svg width="31" height="30" viewBox="0 0 31 30" fill="none" xmlns="http://www.w3.org/2000/svg">
<path d="M15.8754 0.0144595C9.7314 0.0144595 3.89707 -0.531653 1.66859 5.18308C0.748096 7.54337 0.881772 10.6087 0.881772 14.9979C0.881772 18.8494 0.758249 22.4693 1.66859 24.811C3.892 30.5291 9.7737 29.9813 15.872 29.9813C21.7554 29.9813 27.8215 30.5934 30.0771 24.811C30.9993 22.427 30.8639 19.4074 30.8639 14.9979C30.8639 9.14451 31.1871 5.36568 28.3461 2.5286C25.4695 -0.34567 21.5794 0.0144595 15.8686 0.0144595H15.8754ZM14.5319 2.71459C27.3477 2.6943 28.9789 1.27069 28.0787 21.0474C27.7589 28.042 22.4288 27.2744 15.8771 27.2744C3.93091 27.2744 3.58742 26.9329 3.58742 14.9911C3.58742 2.91072 4.53499 2.72135 14.5319 2.71121V2.71459ZM23.879 5.20168C22.8857 5.20168 22.0803 6.00648 22.0803 6.99895C22.0803 7.99142 22.8857 8.79622 23.879 8.79622C24.8722 8.79622 25.6776 7.99142 25.6776 6.99895C25.6776 6.00648 24.8722 5.20168 23.879 5.20168ZM15.8754 7.30328C11.6232 7.30328 8.17637 10.749 8.17637 14.9979C8.17637 19.2467 11.6232 22.6908 15.8754 22.6908C20.1276 22.6908 23.5727 19.2467 23.5727 14.9979C23.5727 10.749 20.1276 7.30328 15.8754 7.30328ZM15.8754 10.0034C22.483 10.0034 22.4914 19.9924 15.8754 19.9924C9.26946 19.9924 9.2593 10.0034 15.8754 10.0034Z" fill="white"/>
</svg>
