<svg width="31" height="30" viewBox="0 0 31 30" fill="none" xmlns="http://www.w3.org/2000/svg">
<path d="M30.8736 15.2618C30.7986 13.2406 29.2985 11.6404 27.4609 11.6826C26.6358 11.7247 25.8858 12.1037 25.3232 12.6932C22.773 10.7141 19.7353 9.66132 16.6226 9.57711L18.0852 1.70271L22.9231 2.79755C23.0731 4.18715 24.1606 5.19776 25.3982 5.02933C26.6358 4.86089 27.5359 3.63973 27.3859 2.25013C27.2358 0.860531 26.1483 -0.150087 24.9107 0.0183494C24.1981 0.102568 23.5606 0.565767 23.2231 1.23951L17.7102 0.0183494C17.3352 -0.0658687 16.9602 0.186786 16.8852 0.607877L15.235 9.40867C12.0848 9.45078 9.04713 10.5456 6.42196 12.5247C5.10937 11.1351 3.00923 11.1772 1.77165 12.6932C0.534064 14.167 0.571566 16.5251 1.92166 17.9147C2.18417 18.1674 2.48419 18.42 2.82172 18.5884C2.78421 18.9674 2.78421 19.3464 2.82172 19.6833C2.82172 25.368 8.70961 30 15.9851 30C23.2606 30 29.1485 25.4101 29.1485 19.6833C29.186 19.3043 29.186 18.9253 29.1485 18.5884C30.1985 17.9989 30.9111 16.6935 30.8736 15.2618ZM8.25958 17.8305C8.25958 16.4409 9.27215 15.3039 10.5097 15.3039C11.7473 15.3039 12.7599 16.4409 12.7599 17.8305C12.7599 19.2201 11.7473 20.357 10.5097 20.357C9.27215 20.357 8.25958 19.2201 8.25958 17.8305ZM21.3855 24.8206C19.7728 26.1681 17.8227 26.8839 15.8351 26.7576C13.8475 26.8418 11.8598 26.1681 10.2847 24.8206C10.0597 24.5258 10.0972 24.1047 10.3597 23.8521C10.5847 23.6415 10.8848 23.6415 11.1473 23.8521C12.4974 24.9469 14.1475 25.5364 15.8351 25.4522C17.5227 25.5364 19.1728 25.0311 20.5604 23.8942C20.8229 23.6415 21.1979 23.6415 21.4605 23.8942C21.6855 24.1889 21.6855 24.61 21.4605 24.9048V24.8206H21.3855ZM21.0104 20.4834C19.7728 20.4834 18.7603 19.3464 18.7603 17.9568C18.7603 16.5672 19.7728 15.4303 21.0104 15.4303C22.248 15.4303 23.2606 16.5672 23.2606 17.9568C23.2981 19.3464 22.3605 20.5255 21.0854 20.5676C21.0479 20.5676 21.0104 20.5676 20.9729 20.5676L21.0104 20.4834Z" fill="white"/>
</svg>
