<svg width="31" height="30" viewBox="0 0 31 30" fill="none" xmlns="http://www.w3.org/2000/svg">
<g clip-path="url(#clip0_1_12151)">
<path fill-rule="evenodd" clip-rule="evenodd" d="M3.42125 14.1165C11.1731 10.7392 16.3422 8.51261 18.9286 7.43685C26.3132 4.36533 27.8477 3.83177 28.8479 3.81415C29.0678 3.81028 29.5597 3.86479 29.8783 4.12331C30.1473 4.3416 30.2213 4.63647 30.2567 4.84343C30.2921 5.05039 30.3362 5.52185 30.3012 5.89023C29.901 10.0949 28.1694 20.2986 27.2885 25.0079C26.9158 27.0006 26.1818 27.6687 25.4713 27.7341C23.9271 27.8762 22.7545 26.7136 21.2588 25.7332C18.9185 24.199 17.5963 23.244 15.3246 21.747C12.6992 20.0169 14.4011 19.066 15.8973 17.512C16.2889 17.1053 23.0927 10.9168 23.2243 10.3554C23.2408 10.2852 23.2561 10.0235 23.1006 9.88527C22.9451 9.74707 22.7157 9.79433 22.5501 9.83191C22.3153 9.88519 18.5766 12.3564 11.3338 17.2455C10.2725 17.9742 9.31129 18.3292 8.45006 18.3106C7.50062 18.2901 5.67428 17.7738 4.31658 17.3325C2.65131 16.7912 1.32778 16.505 1.44303 15.5856C1.50306 15.1068 2.16246 14.6171 3.42125 14.1165Z" fill="white"/>
</g>
<defs>
<clipPath id="clip0_1_12151">
<rect width="30" height="30" fill="white" transform="translate(0.875)"/>
</clipPath>
</defs>
</svg>
