<svg width="31" height="30" viewBox="0 0 31 30" fill="none" xmlns="http://www.w3.org/2000/svg">
<g clip-path="url(#clip0_1_12146)">
<path d="M27.1963 8.97594C27.2079 9.23994 27.2079 9.49194 27.2079 9.75594C27.2194 17.76 21.3389 27 10.5848 27C7.41298 27 4.29905 26.052 1.625 24.276C2.08804 24.336 2.55108 24.36 3.01411 24.36C5.64186 24.36 8.20014 23.448 10.2722 21.756C7.77183 21.708 5.5724 20.016 4.80839 17.544C5.68816 17.724 6.59108 17.688 7.4477 17.436C4.72736 16.884 2.77102 14.4 2.75944 11.508C2.75944 11.484 2.75944 11.46 2.75944 11.436C3.56976 11.904 4.48426 12.168 5.41034 12.192C2.85205 10.4159 2.05331 6.87594 3.60449 4.10393C6.57951 7.89594 10.9552 10.1879 15.6551 10.4399C15.1804 8.33994 15.8287 6.13193 17.3451 4.64393C19.6951 2.35192 23.3994 2.47192 25.622 4.90793C26.93 4.64393 28.1918 4.13993 29.3378 3.43192C28.8979 4.83593 27.9834 6.02393 26.768 6.77994C27.9256 6.63593 29.06 6.31193 30.125 5.83193C29.3378 7.05594 28.3423 8.11194 27.1963 8.97594Z" fill="white"/>
</g>
<defs>
<clipPath id="clip0_1_12146">
<rect width="30" height="30" fill="white" transform="translate(0.875)"/>
</clipPath>
</defs>
</svg>
