<svg width="31" height="30" viewBox="0 0 31 30" fill="none" xmlns="http://www.w3.org/2000/svg">
<g clip-path="url(#clip0_1_12148)">
<path d="M15.8739 25.898C15.8714 25.898 15.8686 25.898 15.8659 25.898C14.9606 25.8918 6.958 25.8188 4.69069 25.2057C3.10614 24.7797 1.8553 23.5302 1.4282 21.9455C0.834942 19.7182 0.872707 15.4301 0.876827 15.0877C0.872936 14.7469 0.834713 10.4233 1.42637 8.17773C1.42706 8.17567 1.42752 8.17338 1.4282 8.17132C1.85049 6.60462 3.12949 5.31647 4.6868 4.88937C4.69069 4.88823 4.69481 4.88732 4.6987 4.88617C6.94038 4.29703 14.9588 4.22493 15.8659 4.21875H15.8821C16.7896 4.22493 24.8136 4.29794 27.06 4.91203C28.6405 5.33684 29.8904 6.58471 30.3186 8.16743C30.9341 10.4146 30.8771 14.7476 30.8709 15.1133C30.8753 15.4736 30.9112 19.7232 30.3214 21.9617C30.3209 21.964 30.3202 21.9661 30.3198 21.9681C29.8925 23.5529 28.6418 24.8024 27.0555 25.2288C27.0534 25.2295 27.0511 25.2299 27.0491 25.2306C24.8076 25.8195 16.7889 25.8916 15.8821 25.898C15.8794 25.898 15.8766 25.898 15.8739 25.898ZM3.69185 8.77877C3.17091 10.7609 3.22012 15.0293 3.22058 15.0723V15.1032C3.20502 16.287 3.25972 19.7152 3.69208 21.3389C3.90173 22.1164 4.51857 22.7323 5.30089 22.9427C6.97379 23.3952 13.4917 23.5376 15.8739 23.5543C18.2623 23.5376 24.7898 23.3991 26.4503 22.9647C27.2301 22.7536 27.8449 22.1398 28.0559 21.3613C28.4887 19.7138 28.543 16.3024 28.5272 15.1261C28.5272 15.1138 28.5272 15.1014 28.5274 15.0891C28.5489 13.8911 28.5066 10.4228 28.058 8.7861C28.0575 8.78449 28.0571 8.78289 28.0568 8.78129C27.8463 8.00034 27.2292 7.38442 26.4469 7.17408C24.7902 6.72112 18.2618 6.57921 15.8739 6.5625C13.4871 6.57921 6.96601 6.71746 5.30043 7.15142C4.53299 7.36428 3.90219 8.00217 3.69185 8.77877ZM29.1882 21.6632H29.1889H29.1882ZM12.8867 19.8043V10.3123L21.0899 15.0584L12.8867 19.8043Z" fill="white"/>
</g>
<defs>
<clipPath id="clip0_1_12148">
<rect width="30" height="30" fill="white" transform="translate(0.875)"/>
</clipPath>
</defs>
</svg>
