<svg width="22" height="23" viewBox="0 0 22 23" fill="none" xmlns="http://www.w3.org/2000/svg">
<path fill-rule="evenodd" clip-rule="evenodd" d="M18.2802 0.289504L1.37174 2.48485C0.792022 2.56012 0.386015 3.11115 0.464556 3.71607L2.75546 21.3605C2.83389 21.9646 3.36715 22.3936 3.94687 22.3184L13.0505 21.1364L12.0533 13.4559L9.57601 13.7775L9.18738 10.7843L11.6646 10.4626L11.3781 8.25533C11.0454 5.6935 12.3635 4.1039 14.5541 3.81948C15.6034 3.68323 16.5153 3.64803 16.783 3.65025L17.1306 6.32778L15.6117 6.52583C14.4206 6.68048 14.2669 7.30127 14.3793 8.16734L14.6275 10.0788L17.4683 9.70995L17.487 12.7512L15.0161 13.072L16.0132 20.7517L20.8569 20.1228C21.435 20.0478 21.841 19.4967 21.7625 18.8918L19.4717 1.24823C19.3931 0.643312 18.8599 0.214235 18.2802 0.289504Z" fill="#474858"/>
</svg>
