<svg width="24" height="21" viewBox="0 0 24 21" fill="none" xmlns="http://www.w3.org/2000/svg">
<path fill-rule="evenodd" clip-rule="evenodd" d="M21.5959 0.379742C21.4853 0.429079 19.7354 1.36514 17.7072 2.45994C15.679 3.55478 11.2569 5.93953 7.88032 7.75949C0.651811 11.6555 1.05066 11.4353 0.770281 11.6864C0.237888 12.1634 0.301134 12.692 0.919102 12.9309C1.13668 13.015 6.76648 14.0334 6.96892 14.0253C7.0077 14.0237 9.6366 11.8879 12.8109 9.27903C15.9852 6.67011 18.6468 4.49091 18.7255 4.4364C19.0328 4.22348 19.4021 4.26613 19.2942 4.50207C19.2644 4.56708 17.2166 6.971 14.7435 9.84408L10.247 15.0678L10.3831 17.4386C10.4581 18.7425 10.5302 20.0044 10.5435 20.2429L10.5678 20.6764L10.7744 20.6496C11.1446 20.6015 11.3433 20.4025 12.6819 18.7391L13.9429 17.1722L16.9603 18.8322C20.1889 20.6084 20.293 20.6559 20.8177 20.5927C21.3067 20.5339 21.5667 20.2804 21.7348 19.6986C21.7698 19.5772 22.1238 15.4842 22.5215 10.603C23.2343 1.85217 23.2434 1.72182 23.1692 1.28329C23.1019 0.88537 23.0761 0.816671 22.9247 0.630498C22.627 0.264613 22.0838 0.162153 21.5959 0.379742Z" fill="#3571FD"/>
</svg>
