<svg width="20" height="19" viewBox="0 0 20 19" fill="none" xmlns="http://www.w3.org/2000/svg">
<path fill-rule="evenodd" clip-rule="evenodd" d="M19.0254 2.45795C18.3681 2.8727 17.6449 3.18845 16.8689 3.38921C17.6089 2.78136 18.1239 1.90357 18.2912 0.915481C17.5985 1.47936 16.8078 1.92656 15.9429 2.22456C15.1299 1.52594 14.0512 1.16347 12.9298 1.30907C10.4121 1.63596 8.88034 4.32726 9.77934 6.7979C6.51742 7.04915 3.43387 5.80247 1.19055 3.5904C0.406369 5.55186 1.2088 7.88043 3.10209 8.86653C2.46097 8.92792 1.83537 8.82343 1.2707 8.58667C1.47268 10.4772 2.99652 12.0726 4.92285 12.2217C4.39419 12.4483 3.79781 12.5627 3.17054 12.5198C3.87618 14.0719 5.46865 15.0609 7.18042 14.8722C5.7152 16.4263 3.72755 17.2936 1.62589 17.3077C3.50147 18.2381 5.63931 18.6454 7.84097 18.3595C15.0811 17.4195 18.3432 10.5078 17.353 4.81708C18.0403 4.14382 18.6086 3.34147 19.0254 2.45795Z" fill="#3571FD"/>
</svg>
