<svg width="29" height="22" viewBox="0 0 29 22" fill="none" xmlns="http://www.w3.org/2000/svg">
<path d="M0 14.6119C0 18.6343 2.86813 22 6.21428 22C9.48077 22 11.9505 19.4552 11.9505 16.1716C11.9505 12.6418 8.92308 10.2612 4.93956 10.0149C5.97527 7.38806 7.72802 4.59701 11.1538 1.06716L10.1181 0C3.50549 3.85821 0 9.68657 0 14.6119ZM17.0494 14.6119C17.0494 18.6343 19.9176 22 23.2637 22C26.5302 22 29 19.4552 29 16.1716C29 12.6418 25.9725 10.2612 21.989 10.0149C23.0247 7.38806 24.7775 4.59701 28.2033 1.06716L27.1676 0C20.5549 3.85821 17.0494 9.68657 17.0494 14.6119Z" fill="#9AE3FF"/>
</svg>
