<svg width="29" height="22" viewBox="0 0 29 22" fill="none" xmlns="http://www.w3.org/2000/svg">
<path d="M29 7.38806C29 3.36567 26.1319 0 22.7857 0C19.5192 0 17.0495 2.54478 17.0495 5.82836C17.0495 9.35821 20.0769 11.7388 24.0604 11.9851C23.0247 14.6119 21.272 17.403 17.8462 20.9328L18.8819 22C25.4945 18.1418 29 12.3134 29 7.38806ZM11.9506 7.38806C11.9506 3.36567 9.08242 0 5.73627 0C2.46978 0 0 2.54478 0 5.82836C0 9.35821 3.02747 11.7388 7.01099 11.9851C5.97527 14.6119 4.22252 17.403 0.796703 20.9328L1.83242 22C8.44505 18.1418 11.9506 12.3134 11.9506 7.38806Z" fill="#9AE3FF"/>
</svg>
